<?xml version="1.0" standalone="no"?>
<!DOCTYPE svg PUBLIC "-//W3C//DTD SVG 20010904//EN"
 "http://www.w3.org/TR/2001/REC-SVG-20010904/DTD/svg10.dtd">
<svg version="1.0" xmlns="http://www.w3.org/2000/svg"
 width="700.000000pt" height="700.000000pt" viewBox="0 0 700.000000 700.000000"
 preserveAspectRatio="xMidYMid meet">
<metadata>
Created by potrace 1.14, written by Peter Selinger 2001-2017
</metadata>
<g transform="translate(0.000000,700.000000) scale(0.100000,-0.100000)"
fill="#000000" stroke="none">
<path d="M3277 6994 c-1 -1 -40 -4 -87 -8 -81 -6 -116 -10 -185 -21 -16 -3
-48 -7 -70 -10 -38 -6 -65 -11 -110 -20 -11 -2 -31 -6 -45 -9 -218 -39 -553
-154 -798 -273 -257 -125 -561 -321 -743 -480 -511 -447 -856 -958 -1063
-1575 -31 -94 -79 -267 -91 -329 -3 -13 -12 -58 -20 -99 -8 -41 -17 -92 -21
-114 -3 -21 -7 -48 -10 -60 -2 -11 -7 -50 -10 -86 -3 -36 -7 -78 -10 -95 -2
-16 -6 -96 -10 -176 -5 -136 -4 -147 13 -150 10 -2 236 -4 503 -4 l485 1 1 54
c5 203 34 419 81 590 209 772 753 1389 1481 1681 233 94 497 157 730 175 43 3
79 8 81 10 2 2 4 227 4 501 l1 498 -53 0 c-28 1 -53 0 -54 -1z"/>
<path d="M3525 6498 l0 -503 25 -1 c14 -1 76 -4 139 -8 62 -3 116 -8 120 -10
3 -2 29 -6 56 -10 28 -3 61 -8 75 -11 77 -14 182 -39 230 -53 30 -9 57 -16 60
-17 22 -4 161 -54 230 -83 294 -123 545 -290 778 -516 238 -232 404 -474 560
-816 65 -142 147 -436 168 -600 3 -25 7 -52 9 -60 6 -20 17 -192 18 -260 0
-30 4 -57 8 -60 6 -4 959 -5 992 -1 8 1 0 327 -8 340 -1 4 -6 42 -10 86 -3 43
-8 82 -10 85 -1 3 -6 28 -9 55 -17 129 -80 386 -137 557 -348 1037 -1167 1856
-2204 2206 -167 56 -419 119 -555 137 -19 3 -46 7 -60 10 -13 2 -54 7 -90 11
-36 3 -76 7 -90 10 -14 2 -86 6 -160 9 l-136 6 1 -503z"/>
<path d="M3617 4955 c-1 -2 -60 -5 -130 -9 -70 -4 -133 -9 -140 -11 -7 -2 -34
-6 -62 -10 -226 -24 -527 -101 -755 -193 -578 -232 -977 -617 -1054 -1017 -15
-79 -16 -260 -1 -315 4 -14 8 -38 9 -55 2 -26 9 -72 22 -155 2 -14 6 -50 9
-80 24 -232 95 -387 253 -549 202 -207 484 -352 857 -441 131 -31 181 -40 305
-54 127 -15 199 -18 345 -18 261 0 453 20 705 73 343 74 675 208 936 381 341
225 574 537 611 816 12 94 8 211 -13 332 -4 23 -28 211 -39 305 -36 299 -262
573 -620 754 -136 69 -142 71 -290 120 -181 59 -398 101 -602 117 -79 6 -341
12 -346 9z"/>
<path d="M6 3317 c4 -76 14 -198 19 -229 2 -13 6 -45 10 -73 9 -76 16 -116 25
-160 5 -22 11 -53 14 -70 28 -153 108 -418 184 -606 50 -125 156 -337 226
-453 36 -60 66 -111 66 -113 0 -2 4 -9 10 -16 5 -7 46 -64 91 -126 173 -245
380 -468 619 -668 75 -62 271 -207 325 -240 238 -145 348 -203 532 -282 181
-76 415 -155 524 -176 12 -2 29 -7 39 -10 22 -7 40 -11 140 -30 105 -20 129
-24 180 -31 25 -3 56 -7 70 -10 157 -25 680 -25 841 1 13 2 44 6 69 9 325 42
700 155 1017 307 414 198 812 497 1098 823 33 38 67 76 75 85 13 14 67 82 92
116 4 6 18 24 31 40 201 256 412 663 525 1015 64 198 122 453 138 601 3 35 8
67 10 70 4 8 17 174 18 239 l1 45 -502 2 -503 2 -1 -32 c0 -17 -2 -43 -4 -57
-2 -14 -9 -63 -14 -110 -32 -247 -108 -507 -216 -737 -286 -607 -806 -1074
-1440 -1293 -96 -33 -234 -71 -306 -85 -13 -3 -35 -7 -49 -10 -30 -6 -70 -12
-130 -20 -25 -3 -63 -8 -85 -11 -140 -19 -498 -8 -641 20 -12 2 -39 7 -60 10
-52 8 -244 55 -269 66 -11 4 -63 22 -115 40 -421 142 -847 451 -1132 821 -216
279 -393 651 -454 949 -3 14 -9 41 -14 60 -17 68 -34 187 -45 312 l-8 77 -502
0 -503 0 4 -62z"/>
</g>
</svg>
