<svg xmlns="http://www.w3.org/2000/svg" xmlns:xlink="http://www.w3.org/1999/xlink" viewBox="0 0 494 493.98">
  <defs>
    <style>
      .a {
        fill: #0042d0;
      }

      .b {
        fill: #ff173e;
      }

      .c {
        fill: #009f20;
      }

      .d {
        fill: url(#a);
      }

      .e {
        fill: url(#b);
      }

      .f {
        fill: url(#c);
      }

      .g {
        fill: url(#d);
      }

      .h {
        fill: url(#e);
      }

      .i {
        fill: #231f20;
      }

      .j {
        fill: url(#f);
      }

      .k {
        isolation: isolate;
        opacity: 0.8;
        fill: url(#g);
      }
    </style>
    <linearGradient id="a" x1="-101.04" y1="496.31" x2="144.56" y2="496.31"
      gradientTransform="matrix(0.84, 0.54, 0.54, -0.84, -43.26, 636.69)" gradientUnits="userSpaceOnUse">
      <stop offset="0" stop-color="#fff2b0" />
      <stop offset="0.69" stop-color="#ffc200" />
      <stop offset="1" stop-color="#ffe47d" />
    </linearGradient>
    <linearGradient id="b" x1="-27.72" y1="528.33" x2="91.12" y2="451.43" xlink:href="#a" />
    <linearGradient id="c" x1="101.16" y1="579.1" x2="-6.19" y2="355.12"
      gradientTransform="matrix(0.84, 0.54, 0.54, -0.84, -43.26, 636.69)" gradientUnits="userSpaceOnUse">
      <stop offset="0" stop-color="#ab6606" />
      <stop offset="0.07" stop-color="#c07c04" />
      <stop offset="0.19" stop-color="#dd9a02" />
      <stop offset="0.3" stop-color="#efac01" />
      <stop offset="0.37" stop-color="#f5b300" />
      <stop offset="0.45" stop-color="#e9a701" />
      <stop offset="0.61" stop-color="#ca8603" />
      <stop offset="0.73" stop-color="#ab6606" />
      <stop offset="1" stop-color="#6b3b06" />
    </linearGradient>
    <linearGradient id="d" x1="34.19" y1="552.79" x2="23.86" y2="397.45"
      gradientTransform="matrix(0.84, 0.54, 0.54, -0.84, -43.26, 636.69)" gradientUnits="userSpaceOnUse">
      <stop offset="0" stop-color="#fffbec" />
      <stop offset="1" stop-color="#fbdc7c" />
    </linearGradient>
    <linearGradient id="e" x1="-84.69" y1="503.93" x2="117.51" y2="503.93"
      gradientTransform="matrix(0.84, 0.54, 0.54, -0.84, -43.26, 636.69)" gradientUnits="userSpaceOnUse">
      <stop offset="0" stop-color="#f0a306" />
      <stop offset="1" stop-color="#a1610b" />
    </linearGradient>
    <linearGradient id="f" x1="210.16" y1="637.23" x2="382.26" y2="637.23"
      gradientTransform="matrix(1, 0, 0, -1, -50, 865.96)" xlink:href="#c" />
    <radialGradient id="g" cx="420.84" cy="602.72" r="21.16" gradientTransform="matrix(1, 0, 0, -1, -50, 865.96)"
      gradientUnits="userSpaceOnUse">
      <stop offset="0" stop-color="#fff" />
      <stop offset="1" stop-color="#fff2b9" />
    </radialGradient>
  </defs>
  <path class="a" d="M422.77,255.55a176,176,0,0,1-351.54,0H.17C4.69,388,113.46,494,247,494S489.31,388,493.83,255.55" />
  <path class="b"
    d="M0,247c0,.3,0,.61,0,.91H71c0-.3,0-.61,0-.91A176,176,0,0,1,238.72,71.18V.13C106.14,4.5,0,113.34,0,247Z" />
  <path class="c"
    d="M423,247c0,.3,0,.61,0,.91h71c0-.3,0-.61,0-.91C494,111.13,384.32.91,248.68,0V71A176,176,0,0,1,423,247Z" />
  <path class="d"
    d="M386.42,215c5.7,47.54-53,93.69-131.19,103.07S109.09,296.56,103.38,249s53-93.69,131.19-103.07S380.71,167.49,386.42,215Z" />
  <path class="e"
    d="M367.59,217.29c4.94,41.21-46,81.22-113.73,89.35S127.17,288,122.22,246.76s46-81.22,113.72-89.36S362.64,176.08,367.59,217.29Z" />
  <path class="f"
    d="M390.4,245c-.17-1.4-.39-2.77-.66-4.13L386.2,215c5.7,47.54-53,93.69-131.18,103.08-75.32,9-141.18-19.36-151-64L107,274c0,1.62.16,3.26.36,4.88,5.71,47.55,73.7,78.48,151.85,69.1S396.11,292.49,390.4,245Z" />
  <path class="g"
    d="M386.42,215c5.33,44.46-53.7,88.12-131.86,97.5S108.72,293.47,103.38,249c6,49.46,74.12,82,152.27,72.58S392.36,264.49,386.42,215Z" />
  <path class="h"
    d="M236.93,163.54c65-7.81,122,16.59,130.78,55,0-.43-.08-.85-.12-1.28-4.95-41.21-63.89-68-131.65-59.89s-118.67,48.14-113.72,89.36a46.6,46.6,0,0,0,.86,4.86c-3.76-40.76,46.79-80,113.85-88.08Z" />
  <path class="i"
    d="M176.84,228.33l23.3,5.44q-9.21,4.8-6.93,8.11c.63,1.38,2.54,2.68,5.72,3.88L231.37,232,231,232l-.34-.31a4.11,4.11,0,0,1-.85-.31,6.37,6.37,0,0,0-1.19-.4q-13.28-5.41-14.84-9c-1.77-1.81-1.32-4.09,1.34-6.87q3.24-3.18,13.48-7.5a112.56,112.56,0,0,1,38.1-8.69,147.8,147.8,0,0,1,36.92,2.61l15.17-6.42.34.08c3.43.81,5.1,2,5,3.61s-1.86,3.16-5.39,4.65l-2.47,1q14,4.42,15.49,9.87,1.08,7-16.21,14.74l-13.71-3.2q-7.89-1.84-3.56-5.7a4.3,4.3,0,0,0,1.2-3.66,13.1,13.1,0,0,0-4-3.25l-30,12.68a80,80,0,0,0,7.27,3.78,38.46,38.46,0,0,1,4.91,2.54,23.74,23.74,0,0,1,5.36,4q2.63,3.17,0,7-3.28,3.63-12.8,7.66a129,129,0,0,1-41.6,9.49,155.48,155.48,0,0,1-38.3-2.7l-15.16,6.42-12.68-3,15.16-6.41q-16.41-4.53-17.88-10.66-1.44-7.05,17-15.72ZM283.56,210a66.33,66.33,0,0,0-14.49-1.07A46.78,46.78,0,0,0,253,212.32q-9.17,3.87,3.06,9.28L283.55,210ZM210.9,249a70,70,0,0,0,16.22,1.24,45.6,45.6,0,0,0,16.42-3.57q8.1-3.42-3-10.2L210.9,249Z" />
  <path class="j"
    d="M177.22,227.48l23.3,5.45q-9.21,4.78-6.93,8.1c.63,1.39,2.53,2.68,5.72,3.88l32.44-13.72-.35-.08-.33-.31a3.92,3.92,0,0,1-.85-.31,6.48,6.48,0,0,0-1.2-.4q-13.26-5.42-14.83-9-2.66-2.7,1.33-6.87,3.25-3.16,13.48-7.5A112.56,112.56,0,0,1,267.11,198,148.31,148.31,0,0,1,304,200.62l15.16-6.41.35.08q5.13,1.2,5,3.6t-5.39,4.65l-2.47,1q14,4.44,15.49,9.87,1.08,7-16.21,14.74L302.28,225q-7.89-1.85-3.56-5.7a4.36,4.36,0,0,0,1.2-3.66,13.1,13.1,0,0,0-4-3.25l-30,12.68a80,80,0,0,0,7.28,3.78,39.16,39.16,0,0,1,4.91,2.54,24,24,0,0,1,5.36,4q2.63,3.17,0,7-3.28,3.63-12.8,7.66a129.08,129.08,0,0,1-41.6,9.5,156,156,0,0,1-38.3-2.7l-15.17,6.41-12.67-3,15.16-6.42q-16.43-4.53-17.88-10.66-1.44-7,16.95-15.72Zm106.71-18.36a66.29,66.29,0,0,0-14.49-1.07,46.77,46.77,0,0,0-16.07,3.42q-9.17,3.89,3.06,9.28l27.5-11.63Zm-72.65,39a69.33,69.33,0,0,0,16.21,1.25,45.86,45.86,0,0,0,16.43-3.57q8.1-3.43-3-10.2l-29.62,12.52Z" />
  <polygon class="k"
    points="372.54 241.12 370.9 262.4 350.69 263.19 370.8 264.66 371.93 285.36 373.16 264.61 391 263.81 373.31 262.4 372.54 241.12" />
</svg>